<svg width="96" height="96" viewBox="0 0 96 96" fill="none" xmlns="http://www.w3.org/2000/svg">
<rect width="96" height="96" fill="#D41443"/>
<path fill-rule="evenodd" clip-rule="evenodd" d="M76.7775 12.3715C76.6361 12.2887 76.1993 12.0282 75.8067 11.7925C74.1351 10.7888 71.5614 9.9818 69.4528 9.80052C65.6175 9.47079 61.5459 10.7166 58.5661 13.1317C57.6905 13.8412 56.0843 15.6506 55.5181 16.565L55.1763 17.1172L56.9013 18.571C58.3224 19.7688 58.7662 20.2017 59.4197 21.028C61.9123 24.1795 63.2351 27.5005 63.5828 31.4797C63.8379 34.3989 63.5949 36.6735 62.7586 39.193C61.0213 44.4273 57.1812 48.6142 52.0702 50.8466C50.6247 51.4781 50.0791 51.5541 49.37 51.2234C48.1943 50.6751 47.8799 49.1856 48.7269 48.1763C48.9952 47.8565 49.3528 47.6423 50.2891 47.2403C52.7701 46.1753 54.4161 44.9482 56.1483 42.8725C57.873 40.8058 58.7631 39.0216 59.3356 36.484C60.1863 32.7129 59.4828 28.5027 57.4516 25.2093C56.4471 23.5803 55.7672 22.8049 54.1838 21.4822C52.6394 20.1921 51.7241 19.6329 50.0827 18.9768C45.6742 17.2147 40.5299 17.6466 36.4844 20.1185C32.4742 22.569 29.8888 26.6842 29.3622 31.4551C29.201 32.9159 29.4571 35.748 29.8815 37.1973C30.2582 38.484 30.6709 39.1369 32.2859 41.0012C35.4248 44.6247 41.1732 49.8876 47.9781 55.3683C53.7063 59.9819 58.3776 63.16 61.352 64.4669C62.4828 64.9639 64.0934 65.101 66.1735 64.8774C72.0285 64.2483 76.9647 60.2036 78.8161 54.5179C80.1825 50.3221 79.6307 45.6154 77.3364 41.8952C76.3279 40.2599 75.6525 39.4903 74.0661 38.1689C72.5493 36.9055 71.3204 36.1553 69.8171 35.5751C68.4849 35.061 67.897 34.195 68.1478 33.1167C68.3125 32.4088 68.6542 31.9921 69.3095 31.6996C69.9105 31.4314 70.3697 31.4849 71.5709 31.9636C73.3338 32.6659 74.577 33.4301 76.5005 34.9936L78.2779 36.4384L78.7862 35.9814C79.5123 35.3283 81.1654 33.1747 81.6495 32.2508C83.1203 29.4444 83.673 26.5424 83.3378 23.3876C83.0242 20.4365 81.9422 17.7866 80.0966 15.4507C79.5333 14.7378 77.334 12.6974 76.7775 12.3715ZM57.2319 66.4536C55.9898 65.7721 53.1739 63.987 51.0769 62.5515C49.4172 61.4154 46.3321 59.1928 45.8219 58.7657C45.7479 58.7037 45.8775 60.769 46.1098 63.3551C46.3421 65.9412 46.5616 68.0635 46.5976 68.0714C46.8762 68.1327 58.2166 67.0347 58.1076 66.9572C58.0301 66.9019 57.6361 66.6753 57.2319 66.4536ZM29.0147 48.005C29.2968 51.1856 29.534 53.7933 29.5416 53.7997C29.6042 53.8523 38.8379 52.9751 38.7998 52.9202C38.7724 52.8809 37.8318 51.9696 36.7096 50.8951C34.0915 48.3883 30.1267 44.2181 28.7282 42.5003C28.5442 42.2744 28.5982 43.3094 29.0147 48.005ZM35.6285 57.3445L29.8919 57.8324L30.9416 69.4654L42.4953 68.4826L41.9761 62.7081C41.6905 59.5322 41.4362 56.9163 41.4109 56.8951C41.3856 56.8739 38.7835 57.0761 35.6285 57.3445ZM24.8978 48.1489C24.8494 48.2761 24.4164 49.7203 23.9355 51.3583L23.0612 54.3365L25.566 54.1239L25.2758 51.0208C25.1163 49.314 24.9462 48.0218 24.8978 48.1489ZM49.9074 71.8446L46.8936 72.1022L47.1187 74.5113L47.4456 74.3593C47.6254 74.2757 48.5422 73.8235 49.4829 73.3544C50.4237 72.8853 51.5911 72.3034 52.0772 72.0611C52.5634 71.8188 52.9522 71.6131 52.9412 71.6039C52.9303 71.5947 51.565 71.7029 49.9074 71.8446ZM23.8312 58.3509L21.8168 58.5293L20.0705 64.4619C19.11 67.7249 18.3244 70.4262 18.3248 70.4648C18.3252 70.5036 20.2722 70.3699 22.6516 70.168L26.9777 69.8006L26.4584 64.0258C26.1728 60.8498 25.9181 58.2335 25.8923 58.2119C25.8665 58.1903 24.939 58.2529 23.8312 58.3509ZM31.2978 73.4256L31.6798 77.6672C31.89 80.0002 32.109 81.9048 32.1666 81.9C32.2516 81.8927 42.1775 77.012 42.9841 76.5808C43.1834 76.4743 43.1906 76.167 43.0337 74.4496L42.8506 72.4429L31.2978 73.4256ZM22.1578 74.2838L17.0564 74.718L15.2037 80.9947C14.1848 84.4471 13.3066 87.5195 13.2522 87.8224C13.1402 88.4473 13.4312 89.2457 13.9208 89.6565C14.3223 89.9934 15.2064 90.2091 15.6465 90.0776C16.139 89.9305 27.9805 84.0468 28.121 83.8794C28.2209 83.7604 27.4218 73.9862 27.3041 73.8875C27.2794 73.8667 24.9635 74.0451 22.1578 74.2838Z" fill="white"/>
</svg>
