<svg width="199" height="50" fill="none" xmlns="http://www.w3.org/2000/svg"><path d="M50 25c0 13.807-11.193 25-25 25S0 38.807 0 25 11.193 0 25 0s25 11.193 25 25Z" fill="#D41443"/><path fill-rule="evenodd" clip-rule="evenodd" d="M37 23.5v1.663H13V23.5c0-2.375.69-4.59 1.88-6.452A14.453 14.453 0 0 0 25 21.163c3.936 0 7.507-1.57 10.12-4.115A11.943 11.943 0 0 1 37 23.5Zm2.5 0v1.774a4.502 4.502 0 0 1 0 8.777v4.112a8.004 8.004 0 0 1-5.597 7.632v2.573c-.972.37-1.973.682-3 .931v-2.478h-10.54v2.75a24.846 24.846 0 0 1-3-.759v-2.729a8.002 8.002 0 0 1-6.863-7.92v-4.468a4.5 4.5 0 0 1 0-8.065V23.5C10.5 15.492 16.992 9 25 9s14.5 6.492 14.5 14.5Zm-8.097 11.163h-3.072v1.394a1.536 1.536 0 0 0 3.072 0v-1.394Zm-5.572 1.394v-1.394H13v3.5a5.5 5.5 0 0 0 5.5 5.5h13a5.5 5.5 0 0 0 5.5-5.5v-3.5h-3.097v1.394a4.036 4.036 0 0 1-8.072 0Zm7.72-20.976A11.963 11.963 0 0 0 25 11.5c-3.347 0-6.375 1.37-8.551 3.581A11.963 11.963 0 0 0 25 18.663c3.347 0 6.375-1.371 8.551-3.582ZM38.5 27.663h-26a2 2 0 1 0 0 4h26a2 2 0 1 0 0-4Z" fill="#fff"/><path d="M76.975 34.4c0 .183-.508.333-1.525.45-1.017.1-2.042.15-3.075.15-1.017 0-1.667-.042-1.95-.125-.283-.1-.425-.258-.425-.475V18.85c0-.367.483-.725 1.45-1.075.967-.367 2.05-.55 3.25-.55 1.067 0 1.767.225 2.1.675a.867.867 0 0 1 .175.5v16ZM91.51 34.825c-.667.15-1.35.25-2.05.3-.684.067-1.359.1-2.026.1-.65 0-1.158-.017-1.525-.05a11.55 11.55 0 0 1-1.4-.25 7.525 7.525 0 0 1-1.6-.55c-.483-.233-1-.575-1.55-1.025a6.26 6.26 0 0 1-1.35-1.6c-.85-1.433-1.275-3.283-1.275-5.55 0-1.517.234-2.858.7-4.025.484-1.167 1.059-2.067 1.725-2.7a8.381 8.381 0 0 1 2.325-1.525c1.4-.633 2.809-.95 4.225-.95 2.034 0 3.492.167 4.375.5.4.15.759.383 1.075.7.317.317.475.775.475 1.375s-.15 1.358-.45 2.275c-.283.917-.7 1.375-1.25 1.375-.166 0-.783-.133-1.85-.4-1.066-.267-1.791-.4-2.175-.4-.583 0-1.083.325-1.5.975-.4.65-.6 1.575-.6 2.775s.175 2.133.525 2.8c.367.667.842 1 1.425 1 .417 0 1.167-.167 2.25-.5 1.1-.35 1.742-.525 1.925-.525.517 0 .917.475 1.2 1.425.3.95.45 1.717.45 2.3 0 .583-.183 1.05-.55 1.4-.35.333-.858.583-1.525.75ZM108.066 35h-10.6c-.817 0-1.367-.058-1.65-.175-.284-.117-.425-.3-.425-.55V18.45c0-.433.191-.742.575-.925.4-.183 1.108-.275 2.125-.275h10.05c.35 0 .525.583.525 1.75 0 1.15-.075 2.033-.225 2.65-.15.6-.35.9-.6.9-1.084 0-2.909-.108-5.475-.325V23.9c2.466-.1 4.075-.15 4.825-.15.45 0 .675.525.675 1.575 0 1.05-.092 1.85-.275 2.4-.167.533-.4.8-.7.8l-4.525-.1v1.6c2.9-.217 4.9-.325 6-.325.35 0 .525.583.525 1.75s-.075 2.05-.225 2.65c-.15.6-.35.9-.6.9ZM123.174 34.825c-.666.15-1.35.25-2.05.3-.683.067-1.358.1-2.025.1-.65 0-1.158-.017-1.525-.05-.35-.033-.816-.117-1.4-.25a7.546 7.546 0 0 1-1.6-.55c-.483-.233-1-.575-1.55-1.025a6.277 6.277 0 0 1-1.35-1.6c-.85-1.433-1.275-3.283-1.275-5.55 0-1.517.234-2.858.7-4.025.484-1.167 1.059-2.067 1.725-2.7a8.402 8.402 0 0 1 2.325-1.525c1.4-.633 2.809-.95 4.225-.95 2.034 0 3.492.167 4.375.5.4.15.759.383 1.075.7.317.317.475.775.475 1.375s-.15 1.358-.45 2.275c-.283.917-.7 1.375-1.25 1.375-.166 0-.783-.133-1.85-.4-1.066-.267-1.791-.4-2.175-.4-.583 0-1.083.325-1.5.975-.4.65-.6 1.575-.6 2.775s.175 2.133.525 2.8c.367.667.842 1 1.425 1 .417 0 1.167-.167 2.25-.5 1.1-.35 1.742-.525 1.925-.525.517 0 .917.475 1.2 1.425.3.95.45 1.717.45 2.3 0 .583-.183 1.05-.55 1.4-.35.333-.858.583-1.525.75ZM134.056 34.275c0 .217-.509.392-1.525.525-1.017.133-2.042.2-3.075.2-1.017 0-1.675-.058-1.975-.175-.284-.117-.425-.3-.425-.55V18.2c0-.433.541-.742 1.625-.925 1.1-.183 2.483-.275 4.15-.275 1.666 0 2.741.008 3.225.025.5 0 1.083.025 1.75.075.666.05 1.191.133 1.575.25.4.117.833.267 1.3.45.483.183.858.425 1.125.725.266.283.525.625.775 1.025.45.717.675 1.742.675 3.075 0 1.317-.225 2.433-.675 3.35-.434.9-1.017 1.583-1.75 2.05 1.916 3.017 2.875 4.933 2.875 5.75 0 .817-1.642 1.225-4.925 1.225-.95 0-1.609-.042-1.975-.125-.367-.083-.6-.267-.7-.55l-1.625-5.15-.425-.025v5.125Zm0-8.975h.65c.966 0 1.45-.75 1.45-2.25 0-.767-.134-1.308-.4-1.625-.25-.317-.542-.475-.875-.475h-.825v4.35ZM157.626 35h-10.6c-.816 0-1.366-.058-1.65-.175-.283-.117-.425-.3-.425-.55V18.45c0-.433.192-.742.575-.925.4-.183 1.109-.275 2.125-.275h10.05c.35 0 .525.583.525 1.75 0 1.15-.075 2.033-.225 2.65-.15.6-.35.9-.6.9-1.083 0-2.908-.108-5.475-.325V23.9c2.467-.1 4.075-.15 4.825-.15.45 0 .675.525.675 1.575 0 1.05-.091 1.85-.275 2.4-.166.533-.4.8-.7.8l-4.525-.1v1.6c2.9-.217 4.9-.325 6-.325.35 0 .525.583.525 1.75s-.075 2.05-.225 2.65c-.15.6-.35.9-.6.9ZM167.11 33.725c-.033.483-.292.817-.775 1-.467.183-1.317.275-2.55.275-1.233 0-2.267-.108-3.1-.325-.817-.233-1.225-.525-1.225-.875 0-.4.742-2.95 2.225-7.65 1.483-4.717 2.333-7.433 2.55-8.15.083-.217.75-.392 2-.525a34.499 34.499 0 0 1 4.05-.225c1.45 0 2.25.25 2.4.75 3.15 10.467 4.725 15.783 4.725 15.95 0 .167-.1.333-.3.5-.467.367-1.392.55-2.775.55-2.95 0-4.458-.35-4.525-1.05l-.175-1.625h-2.4l-.125 1.4Zm2-6.15-.375-4.5h-.55l-.425 4.5h1.35ZM182.517 35h-1.825c-.783 0-1.317-.058-1.6-.175-.283-.117-.425-.3-.425-.55V18.5c0-.383.508-.683 1.525-.9a14.951 14.951 0 0 1 3.3-.35c1.167 0 2 .15 2.5.45.5.3.792.617.875.95l1.7 6.6h.225l1.6-6.3c.117-.45.658-.842 1.625-1.175.983-.35 2.058-.525 3.225-.525 1.167 0 2.025.092 2.575.275.567.183.85.417.85.7v16.05c0 .217-.475.392-1.425.525-.95.133-2.108.2-3.475.2s-2.05-.242-2.05-.725c0-1.317.142-3.658.425-7.025h-.225l-1.3 6.525c-.05.25-.258.433-.625.55-.35.117-.883.175-1.6.175-.717 0-1.158-.05-1.325-.15-.15-.1-.25-.292-.3-.575l-1.35-6.525h-.225c.3 3.433.45 5.775.45 7.025 0 .433-1.042.675-3.125.725Z" fill="#D41443"/></svg>