<svg aria-hidden="true" style="position:absolute;width:0;height:0;overflow:hidden" xmlns="http://www.w3.org/2000/svg"><defs><symbol id="icon-favicon" viewBox="0 0 32 32"><path d="M16 32C7.164 32 0 24.837 0 16S7.163 0 16 0s16 7.163 16 16-7.163 16-16 16zm7.643-15.841H8.215V15.107c0-1.507.451-2.908 1.209-4.048 1.68 1.601 3.975 2.587 6.506 2.587s4.825-.986 6.505-2.586a7.389 7.389 0 0 1 1.209 4.055v1.045zm1.607.07v-1.115C25.25 10.081 21.076 6 15.928 6s-9.322 4.08-9.322 9.114v1.339a2.825 2.825 0 0 0-1.607 2.535c0 1.11.655 2.071 1.607 2.534v2.808c0 2.534 1.918 4.63 4.412 4.977v1.715a16.06 16.06 0 0 0 1.928.477V29.77h6.775v1.558a15.916 15.916 0 0 0 2.04-.622l-.111.037v-1.617c2.085-.642 3.598-2.547 3.598-4.797v-2.584c1.288-.286 2.25-1.413 2.25-2.759s-.962-2.473-2.25-2.758zm-7.18 5.901v.877c0 .533.442.965.988.965s.988-.432.988-.965v-.876h-1.975zm-1.607 0H8.215v2.2c0 1.91 1.583 3.457 3.535 3.457h8.358c1.953 0 3.535-1.547 3.535-3.457v-2.2h-1.99v.876c0 1.401-1.162 2.537-2.595 2.537s-2.595-1.136-2.595-2.537v-.876zm-.535-14.558a7.775 7.775 0 0 0-5.497 2.251c1.399 1.389 3.345 2.251 5.497 2.251s4.098-.861 5.497-2.251a7.78 7.78 0 0 0-5.497-2.251zM7.893 17.73c-.71 0-1.286.563-1.286 1.257s.576 1.257 1.286 1.257h16.714c.71 0 1.286-.563 1.286-1.257s-.576-1.257-1.286-1.257H7.893z"/></symbol><symbol id="icon-burger" viewBox="0 0 46 32"><path d="M45.714 3.429H0V1.143h45.714v2.286zM45.714 17.143H0v-2.286h45.714v2.286zM45.714 30.857H0v-2.286h45.714v2.286z"/></symbol><symbol id="icon-close" viewBox="0 0 32 32"><path d="M16.299 17.764 29.295 31.26l1.464-1.41-12.996-13.496L31.259 3.358l-1.41-1.464L16.353 14.89 3.356 1.394l-1.464 1.41L14.889 16.3 1.393 29.296l1.41 1.464 13.496-12.996z"/></symbol><symbol id="icon-arrow-to-right" viewBox="0 0 35 32"><path d="M16.019 3.558 19.686 0l14.752 14.317c.469.449.761 1.081.761 1.781s-.292 1.331-.76 1.78l-.001.001-14.547 14.122-3.667-3.558 10.125-9.824H0v-5.04h26.346L16.02 3.56z"/></symbol><symbol id="icon-arrow" viewBox="0 0 24 32"><path d="M.825 1.055a3.201 3.201 0 0 1 4.52-.23l14.17 12.8a3.199 3.199 0 0 1 0 4.75l-14.17 12.8a3.2 3.2 0 1 1-4.29-4.75L12.596 16 1.055 5.575a3.201 3.201 0 0 1-.23-4.52z"/></symbol><symbol id="icon-bucket-milk" viewBox="0 0 21 32"><path d="M19.147 1.824c-.122.608-.581 1.909-1.116 2.736 1.047 1.464 1.226 3.233.349 4.179-.819.884-2.304.774-3.603-.164a5.217 5.217 0 0 1-.781-.692l-.003-.004-.018-.019a9.55 9.55 0 0 1-.883.301v.047c0 .214-.01.424-.031.628l-.004.043-.001.013c-.021.19-.047.35-.079.508l.006-.037c-.317 1.62-1.284 2.797-2.429 2.797-1.084 0-2.01-1.059-2.374-2.549a5.43 5.43 0 0 1-.143-.894l-.001-.02a6.032 6.032 0 0 1-.019-.488v-.047a8.528 8.528 0 0 1-.714-.232l.063.021c-.077.08-.155.156-.234.23L7.1 8.21a5.038 5.038 0 0 1-.755.57c-1.22.747-2.544.778-3.3-.037-.832-.897-.714-2.532.191-3.947a7.804 7.804 0 0 1-1.263-2.919l-.009-.051A1.937 1.937 0 0 1 2.102.598L2.097.61C2.379.002 3.15.002 3.708.002h13.697c.564 0 1.33 0 1.612.608.228.493.211.82.132 1.216zm-3.971 4.753.013.013c.503.543 1.05.824 1.465.905.203.04.344.027.426.006.074-.019.097-.044.103-.051s.024-.027.04-.084a.992.992 0 0 0 .019-.347c-.031-.351-.192-.841-.552-1.344l-.758-1.06.71-1.097c.321-.486.58-1.049.748-1.651l.01-.042H3.704c.199.714.5 1.337.893 1.892l-.013-.019.732 1.05-.692 1.082c-.307.48-.433.928-.451 1.241a.922.922 0 0 0 .026.305c.007.029.02.054.037.075.006.007.029.03.1.049a.962.962 0 0 0 .412-.001c.403-.074.938-.339 1.438-.86l.744-.776.979.361a7.8 7.8 0 0 0 .536.174l1.271.362-.011 1.417v.032c0 .768.203 1.383.443 1.757.117.183.226.282.298.329.065.043.097.043.106.043s.041 0 .106-.043c.072-.047.18-.146.298-.329.24-.374.442-.989.442-1.756v-.032l-.011-1.418 1.271-.362c.248-.07.491-.154.726-.247l1.023-.408.768.835zM.69 13.44c-.428 0-.753.358-.68.749l3.21 17.28c.058.307.344.531.68.531h13.32c.336 0 .623-.224.68-.531l3.21-17.28c.073-.391-.252-.749-.68-.749H.69zm9.87 7.704c-3.797 0-6.971-2.477-7.748-5.784h15.496c-.777 3.308-3.951 5.784-7.748 5.784zM5.062 30.08l-1.86-10.013c1.827 1.843 4.447 2.996 7.358 2.996s5.531-1.154 7.358-2.996l-1.86 10.013H5.062z"/></symbol><symbol id="icon-bucket-apples" viewBox="0 0 32 32"><path d="M19.789.319c.152.202-.106.527-.487 1.005-.291.365-.652.818-.956 1.375-.294.538-.348 1.236-.374 1.893 1.258-.734 2.681-.872 3.85-.232 1.862 1.018 2.423 3.65 1.375 6.067h.891c.504 0 .887.416.801.87l-1.916 10.166c.687.051 1.389.282 2.048.671.097-.66.292-1.524.701-2.239.396-.691.804-1.156 1.135-1.459a3.64 3.64 0 0 1 .422-.336c.189-.131.423-.209.675-.209h.027-.001c.356 0 .591.151.734.383.134.215-.154.515-.576.955-.323.337-.724.755-1.078 1.281-.262.39-.392.886-.477 1.391 1.27-.6 2.65-.624 3.743.068 1.928 1.219 2.239 4.2.696 6.659-1.329 2.118-3.601 3.157-5.437 2.624-1.357.394-2.953-.07-4.23-1.196l-.25 1.325c-.067.357-.405.618-.801.618H4.6c-.396 0-.734-.26-.801-.618L.015 11.295c-.086-.454.297-.87.801-.87h.578c-.265-.816-.267-1.667.051-2.451.548-1.352 1.915-2.18 3.529-2.317.017.042.009.024 0 .006l-.026-.061c-.279-.616-.602-1.49-.639-2.352-.035-.796.062-1.408.18-1.842.059-.216.123-.386.177-.51.101-.233.254-.409.48-.553.301-.191.58-.19.825-.071.228.11.145.517.022 1.117-.093.457-.209 1.027-.227 1.661-.013.472.143.964.341 1.438.687-1.193 1.775-1.99 3.041-2.067 1.476-.089 2.831.824 3.647 2.269 1.084-.553 2.422-.478 3.659.122.002-.071.004-.145.008-.221.031-.676.14-1.602.498-2.386.331-.724.694-1.225.996-1.557.15-.165.284-.288.388-.373a1.18 1.18 0 0 1 .675-.272h.004c.354-.033.602.096.766.314zm-8.601 10.107c.51-.659.871-1.656.796-2.902-.144-2.395-1.683-3.563-2.742-3.499-.781.047-1.683.708-2.108 2.088l-.358 1.162-1.21-.032c-1.438-.038-2.351.609-2.646 1.336-.195.481-.15 1.167.206 1.846h8.061zm1.855 0h8.356c.033-.052.078-.128.12-.205l.014-.028c1.143-2.107.454-3.917-.477-4.427-.687-.376-1.801-.296-2.89.648l-.917.795-1.009-.672c-1.14-.759-2.204-.74-2.852-.341.1.393.164.806.19 1.233.066 1.096-.136 2.129-.536 2.998zm12.16 13.81a.394.394 0 0 1-.078-.06l-.508-.387c-1.146-.873-2.263-.882-2.925-.463-.898.568-1.471 2.418-.196 4.448 1.067 1.7 2.68 2.218 3.643 1.939l.444-.129.443.129c.963.279 2.576-.239 3.644-1.939 1.274-2.029.701-3.88-.196-4.448-.662-.419-1.779-.41-2.925.463l-.965.735-.379-.288zM3.315 12.658c.916 3.844 4.658 6.723 9.135 6.723s8.218-2.879 9.135-6.723H3.316zm.459 5.472 2.193 11.638h12.964l.504-2.672c-.565-1.807-.241-3.645.89-4.724l.8-4.242c-2.155 2.141-5.244 3.483-8.675 3.483s-6.52-1.342-8.675-3.483z"/></symbol><symbol id="icon-heart" viewBox="0 0 28 32"><path d="M8.57.177C6.434-.268 4.326.085 2.569 1.771.445 3.809-.497 6.977.259 10.308l.015.077c.166.705.397 1.384.657 1.959l.021.048c.637 1.443 1.606 2.879 2.945 4.232 2.831 2.861 5.469 4.452 7.446 5.299V32h5.964v-9.816c1.852-.733 4.365-2.3 7.072-5.581 1.091-1.323 1.935-2.679 2.545-4.019.294-.648.536-1.292.723-1.926l.003-.01.062-.218.01-.036c.955-3.484.319-6.698-1.688-8.625-1.59-1.526-3.609-1.895-5.668-1.5-1.978.38-4.009 1.466-5.795 2.926C12.7 1.765 10.617.602 8.568.174zM3.946 3.13c1.203-1.155 2.6-1.424 4.214-1.087 1.7.355 3.58 1.388 5.386 2.797l1.074.838 1.041-.876c1.662-1.398 3.468-2.348 5.087-2.659 1.564-.301 2.877-.006 3.912.986 1.344 1.29 1.985 3.757 1.19 6.726-.073.271-.157.547-.255.826a.578.578 0 0 1-.243-.444c0-.246-.04-.481-.115-.701-.375-1.101-1.609-1.853-2.975-1.853-.174 0-.346.012-.515.036-1.417.198-2.575 1.203-2.575 2.518v1.921c0 .297-.326.646-.877.646s-.877-.349-.877-.646v-1.92c0-1.472-1.451-2.555-3.091-2.555-1.639 0-3.09 1.084-3.09 2.554v1.921c0 .297-.326.646-.877.646-.552 0-.878-.349-.878-.646v-1.92c0-1.472-1.45-2.555-3.09-2.555s-3.091 1.084-3.091 2.554c0 .292-.314.635-.848.646-1.088-3.139-.269-6.063 1.493-7.755zm1.568 7.108c0-.297.326-.646.878-.646s.877.349.877.646v1.921c0 1.471 1.451 2.555 3.091 2.555 1.639 0 3.09-1.084 3.09-2.555v-1.92c0-.298.326-.647.877-.647.552 0 .878.349.878.646v1.921c0 1.471 1.45 2.555 3.091 2.555s3.09-1.084 3.09-2.555v-1.92c0-.298.326-.647.877-.647s.877.349.877.646c0 1.015.701 1.852 1.661 2.267a16.955 16.955 0 0 1-1.949 2.904c-4.259 5.162-7.747 5.483-8.271 5.483-.195 0-1.3-.151-3.028-.979-1.679-.804-3.869-2.213-6.243-4.612a13.097 13.097 0 0 1-2.024-2.609c1.249-.301 2.227-1.249 2.227-2.454zm7.791 19.855v-7.057h2.044v7.057h-2.044z"/></symbol><symbol id="icon-house" viewBox="0 0 32 32"><path d="M31.6 16.765a1.357 1.357 0 0 0-.122-2.032l-.003-.002L17.174 3.056a1.869 1.869 0 0 0-1.146-.389c-.448 0-.86.157-1.183.419l.004-.003L.5 15.35a1.348 1.348 0 0 0-.07 2.037l.001.001.36.347c.595.581 1.56.651 2.152.155l1.072-.896v13.117c0 .803.701 1.456 1.563 1.456h5.592c.864 0 1.563-.653 1.563-1.456v-9.176h7.133v9.208a1.42 1.42 0 0 0 1.421 1.421l.048-.001h5.926c.861 0 1.56-.651 1.56-1.456V17.179s.299.24.664.541c.363.299 1.131.059 1.709-.536l.408-.419z"/></symbol><symbol id="icon-quotes" viewBox="0 0 43 32"><path d="M32.014 0c1.928 0 3.75.52 5.464 1.561s3.107 2.537 4.178 4.488c1.029 1.951 1.543 4.25 1.543 6.894s-.643 5.225-1.928 7.74c-.429.91-1.2 2.081-2.315 3.512a63.65 63.65 0 0 1-3.214 3.707L31.692 32l-2.893-4.813a22.225 22.225 0 0 0 5.306-4.646l.03-.037c1.542-1.821 2.314-3.49 2.314-5.008 0-.781-.171-1.41-.514-1.886a8.361 8.361 0 0 1-5.014 1.626c-1.328 0-2.593-.412-3.793-1.236a8.638 8.638 0 0 1-2.935-3.078l-.022-.043c-.771-1.258-1.157-2.558-1.157-3.902 0-1.518.45-2.97 1.35-4.358a10.313 10.313 0 0 1 3.364-3.356l.044-.025C29.142.414 30.556.002 32.014.002zM8.936 0c1.928 0 3.75.52 5.464 1.561s3.107 2.536 4.178 4.488c1.029 1.951 1.543 4.25 1.543 6.894 0 1.864-.236 3.534-.707 5.008-.472 1.518-1.286 3.1-2.443 4.748-1.114 1.561-2.164 2.862-3.15 3.902-.986 1.084-2.7 2.883-5.143 5.398l-2.893-4.813a22.225 22.225 0 0 0 5.306-4.646l.03-.037c1.542-1.821 2.314-3.49 2.314-5.008 0-.781-.172-1.41-.514-1.886a8.361 8.361 0 0 1-5.014 1.626c-1.328 0-2.593-.412-3.793-1.236a8.638 8.638 0 0 1-2.935-3.078l-.022-.043C.386 11.62 0 10.32 0 8.976c0-1.518.429-2.97 1.286-4.358A10.313 10.313 0 0 1 4.65 1.262l.045-.025C6.065.413 7.479.001 8.937.001z"/></symbol><symbol id="icon-facebook" viewBox="0 0 16 32"><path d="M14.143 15.971H10.11v14.865H3.998V15.971H1.092v-5.222h2.906V7.367c0-2.417 1.142-6.204 6.167-6.204l4.527.019v5.072h-3.284c-.538 0-1.297.272-1.297 1.425v3.073h4.567l-.534 5.219z"/></symbol><symbol id="icon-github" viewBox="0 0 32 32"><path d="M16 0C7.211 0 0 7.211 0 16c0 7.499 5.262 14.312 12.25 16v-5.293a3.921 3.921 0 0 1-2.062-.06l.028.007c-.946-.278-1.714-.909-2.285-1.869-.363-.613-1.008-1.28-1.68-1.23l-.165-1.867c1.454-.125 2.71.886 3.456 2.139.333.558.715.885 1.205 1.029.472.141.981.074 1.573-.136.149-1.186.693-1.629 1.104-2.256-4.168-.621-5.829-2.832-6.488-4.576-.874-2.318-.405-5.213 1.139-7.043.03-.035.085-.128.064-.192-.709-2.141.154-3.91.186-4.098.818.24.95-.243 3.552 1.336l.448.27c.189.112.128.048.317.032a13.246 13.246 0 0 1 3.349-.469h.01c1.136.014 2.272.176 3.403.483l.146.016c-.013-.003.04-.01.128-.062 3.248-1.968 3.131-1.325 4.003-1.608.032.189.882 1.987.182 4.099-.096.291 2.816 2.957 1.202 7.235-.659 1.744-2.32 3.957-6.486 4.578.534.816 1.176 1.248 1.173 2.928v6.606c6.986-1.688 12.25-8.501 12.25-16 0-8.789-7.211-16-16-16z"/></symbol><symbol id="icon-telegram" viewBox="0 0 44 32"><path d="m17.342 21.048-.674 8.86c.966 0 1.384-.388 1.886-.852l4.526-4.04 9.38 6.414c1.72.894 2.934.422 3.4-1.478L42.016 3.02c.548-2.374-.92-3.302-2.594-2.72L3.228 13.234c-2.47.896-2.434 2.18-.42 2.766l9.252 2.684L33.554 6.132c1.012-.626 1.932-.28 1.176.346l-17.39 14.57z"/></symbol></defs></svg>