<svg aria-hidden="true" style="position: absolute; width: 0; height: 0; overflow: hidden;" version="1.1" xmlns="http://www.w3.org/2000/svg" xmlns:xlink="http://www.w3.org/1999/xlink">
<svg width="199" height="50" fill="none" xmlns="http://www.w3.org/2000/svg"><path d="M50 25c0 13.807-11.193 25-25 25S0 38.807 0 25 11.193 0 25 0s25 11.193 25 25Z" fill="#D41443"/><path fill-rule="evenodd" clip-rule="evenodd" d="M37 23.5v1.663H13V23.5c0-2.375.69-4.59 1.88-6.452A14.453 14.453 0 0 0 25 21.163c3.936 0 7.507-1.57 10.12-4.115A11.943 11.943 0 0 1 37 23.5Zm2.5 0v1.774a4.502 4.502 0 0 1 0 8.777v4.112a8.004 8.004 0 0 1-5.597 7.632v2.573c-.972.37-1.973.682-3 .931v-2.478h-10.54v2.75a24.846 24.846 0 0 1-3-.759v-2.729a8.002 8.002 0 0 1-6.863-7.92v-4.468a4.5 4.5 0 0 1 0-8.065V23.5C10.5 15.492 16.992 9 25 9s14.5 6.492 14.5 14.5Zm-8.097 11.163h-3.072v1.394a1.536 1.536 0 0 0 3.072 0v-1.394Zm-5.572 1.394v-1.394H13v3.5a5.5 5.5 0 0 0 5.5 5.5h13a5.5 5.5 0 0 0 5.5-5.5v-3.5h-3.097v1.394a4.036 4.036 0 0 1-8.072 0Zm7.72-20.976A11.963 11.963 0 0 0 25 11.5c-3.347 0-6.375 1.37-8.551 3.581A11.963 11.963 0 0 0 25 18.663c3.347 0 6.375-1.371 8.551-3.582ZM38.5 27.663h-26a2 2 0 1 0 0 4h26a2 2 0 1 0 0-4Z" fill="#fff"/><path d="M76.975 34.4c0 .183-.508.333-1.525.45-1.017.1-2.042.15-3.075.15-1.017 0-1.667-.042-1.95-.125-.283-.1-.425-.258-.425-.475V18.85c0-.367.483-.725 1.45-1.075.967-.367 2.05-.55 3.25-.55 1.067 0 1.767.225 2.1.675a.867.867 0 0 1 .175.5v16ZM91.51 34.825c-.667.15-1.35.25-2.05.3-.684.067-1.359.1-2.026.1-.65 0-1.158-.017-1.525-.05a11.55 11.55 0 0 1-1.4-.25 7.525 7.525 0 0 1-1.6-.55c-.483-.233-1-.575-1.55-1.025a6.26 6.26 0 0 1-1.35-1.6c-.85-1.433-1.275-3.283-1.275-5.55 0-1.517.234-2.858.7-4.025.484-1.167 1.059-2.067 1.725-2.7a8.381 8.381 0 0 1 2.325-1.525c1.4-.633 2.809-.95 4.225-.95 2.034 0 3.492.167 4.375.5.4.15.759.383 1.075.7.317.317.475.775.475 1.375s-.15 1.358-.45 2.275c-.283.917-.7 1.375-1.25 1.375-.166 0-.783-.133-1.85-.4-1.066-.267-1.791-.4-2.175-.4-.583 0-1.083.325-1.5.975-.4.65-.6 1.575-.6 2.775s.175 2.133.525 2.8c.367.667.842 1 1.425 1 .417 0 1.167-.167 2.25-.5 1.1-.35 1.742-.525 1.925-.525.517 0 .917.475 1.2 1.425.3.95.45 1.717.45 2.3 0 .583-.183 1.05-.55 1.4-.35.333-.858.583-1.525.75ZM108.066 35h-10.6c-.817 0-1.367-.058-1.65-.175-.284-.117-.425-.3-.425-.55V18.45c0-.433.191-.742.575-.925.4-.183 1.108-.275 2.125-.275h10.05c.35 0 .525.583.525 1.75 0 1.15-.075 2.033-.225 2.65-.15.6-.35.9-.6.9-1.084 0-2.909-.108-5.475-.325V23.9c2.466-.1 4.075-.15 4.825-.15.45 0 .675.525.675 1.575 0 1.05-.092 1.85-.275 2.4-.167.533-.4.8-.7.8l-4.525-.1v1.6c2.9-.217 4.9-.325 6-.325.35 0 .525.583.525 1.75s-.075 2.05-.225 2.65c-.15.6-.35.9-.6.9ZM123.174 34.825c-.666.15-1.35.25-2.05.3-.683.067-1.358.1-2.025.1-.65 0-1.158-.017-1.525-.05-.35-.033-.816-.117-1.4-.25a7.546 7.546 0 0 1-1.6-.55c-.483-.233-1-.575-1.55-1.025a6.277 6.277 0 0 1-1.35-1.6c-.85-1.433-1.275-3.283-1.275-5.55 0-1.517.234-2.858.7-4.025.484-1.167 1.059-2.067 1.725-2.7a8.402 8.402 0 0 1 2.325-1.525c1.4-.633 2.809-.95 4.225-.95 2.034 0 3.492.167 4.375.5.4.15.759.383 1.075.7.317.317.475.775.475 1.375s-.15 1.358-.45 2.275c-.283.917-.7 1.375-1.25 1.375-.166 0-.783-.133-1.85-.4-1.066-.267-1.791-.4-2.175-.4-.583 0-1.083.325-1.5.975-.4.65-.6 1.575-.6 2.775s.175 2.133.525 2.8c.367.667.842 1 1.425 1 .417 0 1.167-.167 2.25-.5 1.1-.35 1.742-.525 1.925-.525.517 0 .917.475 1.2 1.425.3.95.45 1.717.45 2.3 0 .583-.183 1.05-.55 1.4-.35.333-.858.583-1.525.75ZM134.056 34.275c0 .217-.509.392-1.525.525-1.017.133-2.042.2-3.075.2-1.017 0-1.675-.058-1.975-.175-.284-.117-.425-.3-.425-.55V18.2c0-.433.541-.742 1.625-.925 1.1-.183 2.483-.275 4.15-.275 1.666 0 2.741.008 3.225.025.5 0 1.083.025 1.75.075.666.05 1.191.133 1.575.25.4.117.833.267 1.3.45.483.183.858.425 1.125.725.266.283.525.625.775 1.025.45.717.675 1.742.675 3.075 0 1.317-.225 2.433-.675 3.35-.434.9-1.017 1.583-1.75 2.05 1.916 3.017 2.875 4.933 2.875 5.75 0 .817-1.642 1.225-4.925 1.225-.95 0-1.609-.042-1.975-.125-.367-.083-.6-.267-.7-.55l-1.625-5.15-.425-.025v5.125Zm0-8.975h.65c.966 0 1.45-.75 1.45-2.25 0-.767-.134-1.308-.4-1.625-.25-.317-.542-.475-.875-.475h-.825v4.35ZM157.626 35h-10.6c-.816 0-1.366-.058-1.65-.175-.283-.117-.425-.3-.425-.55V18.45c0-.433.192-.742.575-.925.4-.183 1.109-.275 2.125-.275h10.05c.35 0 .525.583.525 1.75 0 1.15-.075 2.033-.225 2.65-.15.6-.35.9-.6.9-1.083 0-2.908-.108-5.475-.325V23.9c2.467-.1 4.075-.15 4.825-.15.45 0 .675.525.675 1.575 0 1.05-.091 1.85-.275 2.4-.166.533-.4.8-.7.8l-4.525-.1v1.6c2.9-.217 4.9-.325 6-.325.35 0 .525.583.525 1.75s-.075 2.05-.225 2.65c-.15.6-.35.9-.6.9ZM167.11 33.725c-.033.483-.292.817-.775 1-.467.183-1.317.275-2.55.275-1.233 0-2.267-.108-3.1-.325-.817-.233-1.225-.525-1.225-.875 0-.4.742-2.95 2.225-7.65 1.483-4.717 2.333-7.433 2.55-8.15.083-.217.75-.392 2-.525a34.499 34.499 0 0 1 4.05-.225c1.45 0 2.25.25 2.4.75 3.15 10.467 4.725 15.783 4.725 15.95 0 .167-.1.333-.3.5-.467.367-1.392.55-2.775.55-2.95 0-4.458-.35-4.525-1.05l-.175-1.625h-2.4l-.125 1.4Zm2-6.15-.375-4.5h-.55l-.425 4.5h1.35ZM182.517 35h-1.825c-.783 0-1.317-.058-1.6-.175-.283-.117-.425-.3-.425-.55V18.5c0-.383.508-.683 1.525-.9a14.951 14.951 0 0 1 3.3-.35c1.167 0 2 .15 2.5.45.5.3.792.617.875.95l1.7 6.6h.225l1.6-6.3c.117-.45.658-.842 1.625-1.175.983-.35 2.058-.525 3.225-.525 1.167 0 2.025.092 2.575.275.567.183.85.417.85.7v16.05c0 .217-.475.392-1.425.525-.95.133-2.108.2-3.475.2s-2.05-.242-2.05-.725c0-1.317.142-3.658.425-7.025h-.225l-1.3 6.525c-.05.25-.258.433-.625.55-.35.117-.883.175-1.6.175-.717 0-1.158-.05-1.325-.15-.15-.1-.25-.292-.3-.575l-1.35-6.525h-.225c.3 3.433.45 5.775.45 7.025 0 .433-1.042.675-3.125.725Z" fill="#D41443"/></svg>
<defs>
<symbol id="icon-close" viewBox="0 0 32 32">
<path fill="none" stroke="#fff" style="stroke: var(--color1, #fff)" stroke-linejoin="miter" stroke-linecap="butt" stroke-miterlimit="4" stroke-width="2" d="M2.52 2l26.96 28M2 29.48l28-26.96"></path>
</symbol>
<symbol id="icon-facebook" viewBox="0 0 16 32">
<path fill="#fff" style="fill: var(--color1, #fff)" d="M14.143 15.971h-4.033v14.865h-6.112v-14.865h-2.906v-5.222h2.906v-3.382c0-2.417 1.142-6.204 6.167-6.204l4.527 0.019v5.072h-3.284c-0.538 0-1.297 0.272-1.297 1.425v3.073h4.567l-0.534 5.219z"></path>
</symbol>
<symbol id="icon-telegram" viewBox="0 0 44 32">
<path fill="#fff" style="fill: var(--color1, #fff)" d="M17.342 21.048l-0.674 8.86c0.966 0 1.384-0.388 1.886-0.852l4.526-4.040 9.38 6.414c1.72 0.894 2.934 0.422 3.4-1.478l6.156-26.932c0.548-2.374-0.92-3.302-2.594-2.72l-36.194 12.934c-2.47 0.896-2.434 2.18-0.42 2.766l9.252 2.684 21.494-12.552c1.012-0.626 1.932-0.28 1.176 0.346l-17.39 14.57z"></path>
</symbol>
<symbol id="icon-github" viewBox="0 0 32 32">
<path fill="#fff" style="fill: var(--color1, #fff)" d="M16 0c-8.789 0-16 7.211-16 16 0 7.499 5.262 14.312 12.25 16v-5.293c-0.276 0.070-0.593 0.109-0.919 0.109-0.398 0-0.781-0.059-1.143-0.169l0.028 0.007c-0.946-0.278-1.714-0.909-2.285-1.869-0.363-0.613-1.008-1.28-1.68-1.23l-0.165-1.867c1.454-0.125 2.71 0.886 3.456 2.139 0.333 0.558 0.715 0.885 1.205 1.029 0.472 0.141 0.981 0.074 1.573-0.136 0.149-1.186 0.693-1.629 1.104-2.256-4.168-0.621-5.829-2.832-6.488-4.576-0.874-2.318-0.405-5.213 1.139-7.043 0.030-0.035 0.085-0.128 0.064-0.192-0.709-2.141 0.154-3.91 0.186-4.098 0.818 0.24 0.95-0.243 3.552 1.336l0.448 0.27c0.189 0.112 0.128 0.048 0.317 0.032 1.003-0.282 2.157-0.452 3.349-0.469l0.010-0c1.136 0.014 2.272 0.176 3.403 0.483l0.146 0.016c-0.013-0.003 0.040-0.010 0.128-0.062 3.248-1.968 3.131-1.325 4.003-1.608 0.032 0.189 0.882 1.987 0.182 4.099-0.096 0.291 2.816 2.957 1.202 7.235-0.659 1.744-2.32 3.957-6.486 4.578 0.534 0.816 1.176 1.248 1.173 2.928v6.606c6.986-1.688 12.25-8.501 12.25-16 0-8.789-7.211-16-16-16z"></path>
</symbol>
<symbol id="icon-house" viewBox="0 0 32 32">
<path fill="#d31342" style="fill: var(--color2, #d31342)" d="M31.6 16.765c0.246-0.246 0.399-0.586 0.399-0.962 0-0.435-0.204-0.822-0.521-1.070l-0.003-0.002-14.301-11.675c-0.314-0.243-0.713-0.389-1.146-0.389-0.448 0-0.86 0.157-1.183 0.419l0.004-0.003-14.349 12.267c-0.306 0.249-0.5 0.626-0.5 1.049 0 0.39 0.166 0.741 0.43 0.988l0.001 0.001 0.36 0.347c0.595 0.581 1.56 0.651 2.152 0.155l1.072-0.896v13.117c0 0.803 0.701 1.456 1.563 1.456h5.592c0.864 0 1.563-0.653 1.563-1.456v-9.176h7.133v9.173c-0 0.011-0 0.023-0 0.035 0 0.785 0.636 1.421 1.421 1.421 0.016 0 0.032-0 0.048-0.001l-0.002 0h5.928c0.861 0 1.56-0.651 1.56-1.456v-12.928s0.299 0.24 0.664 0.541c0.363 0.299 1.131 0.059 1.709-0.536l0.408-0.419z"></path>
</symbol>
<symbol id="icon-quotes" viewBox="0 0 43 32">
<path fill="#e1e1e1" style="fill: var(--color3, #e1e1e1)" d="M32.014 0c1.928 0 3.75 0.52 5.464 1.561s3.107 2.537 4.178 4.488c1.029 1.951 1.543 4.25 1.543 6.894s-0.643 5.225-1.928 7.74c-0.429 0.91-1.2 2.081-2.315 3.512-1.157 1.43-2.228 2.666-3.214 3.707l-4.050 4.098-2.893-4.813c2.063-1.302 3.824-2.855 5.306-4.646l0.030-0.037c1.542-1.821 2.314-3.49 2.314-5.008 0-0.781-0.171-1.41-0.514-1.886-1.5 1.084-3.172 1.626-5.014 1.626-1.328 0-2.593-0.412-3.793-1.236-1.237-0.782-2.237-1.834-2.935-3.078l-0.022-0.043c-0.771-1.258-1.157-2.558-1.157-3.902 0-1.518 0.45-2.97 1.35-4.358 0.866-1.389 2.011-2.526 3.364-3.356l0.044-0.025c1.37-0.824 2.784-1.236 4.242-1.236zM8.936 0c1.928 0 3.75 0.52 5.464 1.561s3.107 2.536 4.178 4.488c1.029 1.951 1.543 4.25 1.543 6.894 0 1.864-0.236 3.534-0.707 5.008-0.472 1.518-1.286 3.1-2.443 4.748-1.114 1.561-2.164 2.862-3.15 3.902-0.986 1.084-2.7 2.883-5.143 5.398l-2.893-4.813c2.063-1.302 3.824-2.855 5.306-4.646l0.030-0.037c1.542-1.821 2.314-3.49 2.314-5.008 0-0.781-0.172-1.41-0.514-1.886-1.5 1.084-3.172 1.626-5.014 1.626-1.328 0-2.593-0.412-3.793-1.236-1.237-0.782-2.237-1.834-2.935-3.078l-0.022-0.043c-0.771-1.258-1.157-2.558-1.157-3.902 0-1.518 0.429-2.97 1.286-4.358 0.866-1.389 2.011-2.526 3.364-3.356l0.045-0.025c1.37-0.824 2.784-1.236 4.242-1.236z"></path>
</symbol>
<symbol id="icon-arrow1" viewBox="0 0 26 32">
<path fill="none" stroke="#d41443" style="stroke: var(--color4, #d41443)" stroke-linejoin="round" stroke-linecap="round" stroke-miterlimit="4" stroke-width="6.4" d="M5.171 3.2l14.17 12.8-14.17 12.8"></path>
</symbol>
<symbol id="icon-burger" viewBox="0 0 46 32">
<path fill="none" stroke="#d41443" style="stroke: var(--color4, #d41443)" stroke-linejoin="miter" stroke-linecap="butt" stroke-miterlimit="4" stroke-width="2.2857" d="M0 2.286h45.714M0 16h45.714M0 29.714h45.714"></path>
</symbol>
<symbol id="icon-arrow-to-right" viewBox="0 0 35 32">
<path fill="#d41443" style="fill: var(--color1, #d41443)" d="M16.019 3.558l3.667-3.558 14.752 14.317c0.469 0.449 0.761 1.081 0.761 1.781s-0.292 1.331-0.76 1.78l-0.001 0.001-14.547 14.122-3.667-3.558 10.125-9.824h-26.349v-5.040h26.346l-10.326-10.019z"></path>
</symbol>
<symbol id="icon-bucket-apples" viewBox="0 0 32 32">
<path fill="#fea5bb" style="fill: var(--color2, #fea5bb)" d="M19.789 0.319c0.152 0.202-0.106 0.527-0.487 1.005-0.291 0.365-0.652 0.818-0.956 1.375-0.294 0.538-0.348 1.236-0.374 1.893 1.258-0.734 2.681-0.872 3.85-0.232 1.862 1.018 2.423 3.65 1.375 6.067h0.891c0.504 0 0.887 0.416 0.801 0.87l-1.916 10.166c0.687 0.051 1.389 0.282 2.048 0.671 0.097-0.66 0.292-1.524 0.701-2.239 0.396-0.691 0.804-1.156 1.135-1.459 0.165-0.151 0.309-0.26 0.422-0.336 0.189-0.131 0.423-0.209 0.675-0.209 0.009 0 0.018 0 0.027 0l-0.001-0c0.356 0 0.591 0.151 0.734 0.383 0.134 0.215-0.154 0.515-0.576 0.955-0.323 0.337-0.724 0.755-1.078 1.281-0.262 0.39-0.392 0.886-0.477 1.391 1.27-0.6 2.65-0.624 3.743 0.068 1.928 1.219 2.239 4.2 0.696 6.659-1.329 2.118-3.601 3.157-5.437 2.624-1.357 0.394-2.953-0.070-4.23-1.196l-0.25 1.325c-0.067 0.357-0.405 0.618-0.801 0.618h-15.704c-0.396 0-0.734-0.26-0.801-0.618l-3.784-20.086c-0.086-0.454 0.297-0.87 0.801-0.87h0.578c-0.265-0.816-0.267-1.667 0.051-2.451 0.548-1.352 1.915-2.18 3.529-2.317 0.017 0.042 0.009 0.024 0 0.006l-0.026-0.061c-0.279-0.616-0.602-1.49-0.639-2.352-0.035-0.796 0.062-1.408 0.18-1.842 0.059-0.216 0.123-0.386 0.177-0.51 0.101-0.233 0.254-0.409 0.48-0.553 0.301-0.191 0.58-0.19 0.825-0.071 0.228 0.11 0.145 0.517 0.022 1.117-0.093 0.457-0.209 1.027-0.227 1.661-0.013 0.472 0.143 0.964 0.341 1.438 0.687-1.193 1.775-1.99 3.041-2.067 1.476-0.089 2.831 0.824 3.647 2.269 1.084-0.553 2.422-0.478 3.659 0.122 0.002-0.071 0.004-0.145 0.008-0.221 0.031-0.676 0.14-1.602 0.498-2.386 0.331-0.724 0.694-1.225 0.996-1.557 0.15-0.165 0.284-0.288 0.388-0.373 0.184-0.154 0.418-0.254 0.675-0.272l0.004-0c0.354-0.033 0.602 0.096 0.766 0.314zM11.188 10.426c0.51-0.659 0.871-1.656 0.796-2.902-0.144-2.395-1.683-3.563-2.742-3.499-0.781 0.047-1.683 0.708-2.108 2.088l-0.358 1.162-1.21-0.032c-1.438-0.038-2.351 0.609-2.646 1.336-0.195 0.481-0.15 1.167 0.206 1.846h8.061zM13.043 10.426h8.356c0.033-0.052 0.078-0.128 0.12-0.205l0.014-0.028c1.143-2.107 0.454-3.917-0.477-4.427-0.687-0.376-1.801-0.296-2.89 0.648l-0.917 0.795-1.009-0.672c-1.14-0.759-2.204-0.74-2.852-0.341 0.1 0.393 0.164 0.806 0.19 1.233 0.066 1.096-0.136 2.129-0.536 2.998zM25.203 24.236c-0.030-0.018-0.055-0.037-0.078-0.060l0 0-0.508-0.387c-1.146-0.873-2.263-0.882-2.925-0.463-0.898 0.568-1.471 2.418-0.196 4.448 1.067 1.7 2.68 2.218 3.643 1.939l0.444-0.129 0.443 0.129c0.963 0.279 2.576-0.239 3.644-1.939 1.274-2.029 0.701-3.88-0.196-4.448-0.662-0.419-1.779-0.41-2.925 0.463l-0.965 0.735-0.379-0.288zM3.315 12.658c0.916 3.844 4.658 6.723 9.135 6.723s8.218-2.879 9.135-6.723h-18.269zM3.774 18.13l2.193 11.638h12.964l0.504-2.672c-0.565-1.807-0.241-3.645 0.89-4.724l0.8-4.242c-2.155 2.141-5.244 3.483-8.675 3.483s-6.52-1.342-8.675-3.483z"></path>
</symbol>
<symbol id="icon-bucket-milk" viewBox="0 0 21 32">
<path fill="#fea5bb" style="fill: var(--color2, #fea5bb)" d="M19.147 1.824c-0.122 0.608-0.581 1.909-1.116 2.736 1.047 1.464 1.226 3.233 0.349 4.179-0.819 0.884-2.304 0.774-3.603-0.164-0.292-0.212-0.549-0.44-0.781-0.692l-0.003-0.004-0.018-0.019c-0.287 0.114-0.581 0.214-0.883 0.301v0.047c0 0.214-0.010 0.424-0.031 0.628l-0.004 0.043-0.001 0.013c-0.021 0.19-0.047 0.35-0.079 0.508l0.006-0.037c-0.317 1.62-1.284 2.797-2.429 2.797-1.084 0-2.010-1.059-2.374-2.549-0.067-0.263-0.118-0.575-0.143-0.894l-0.001-0.020c-0.013-0.16-0.019-0.323-0.019-0.488v-0.047c-0.284-0.080-0.501-0.152-0.714-0.232l0.063 0.021c-0.077 0.080-0.155 0.156-0.234 0.23l-0.032 0.029c-0.243 0.221-0.497 0.412-0.755 0.57-1.22 0.747-2.544 0.778-3.3-0.037-0.832-0.897-0.714-2.532 0.191-3.947-0.597-0.843-1.040-1.841-1.263-2.919l-0.009-0.051c-0.027-0.123-0.043-0.263-0.043-0.408 0-0.293 0.065-0.571 0.181-0.82l-0.005 0.012c0.282-0.608 1.053-0.608 1.611-0.608h13.697c0.564 0 1.33 0 1.612 0.608 0.228 0.493 0.211 0.82 0.132 1.216zM15.176 6.577l0.013 0.013c0.503 0.543 1.050 0.824 1.465 0.905 0.203 0.040 0.344 0.027 0.426 0.006 0.074-0.019 0.097-0.044 0.103-0.051s0.024-0.027 0.040-0.084c0.017-0.063 0.035-0.177 0.019-0.347-0.031-0.351-0.192-0.841-0.552-1.344l-0.758-1.060 0.71-1.097c0.321-0.486 0.58-1.049 0.748-1.651l0.010-0.042h-13.696c0.199 0.714 0.5 1.337 0.893 1.892l-0.013-0.019 0.732 1.050-0.692 1.082c-0.307 0.48-0.433 0.928-0.451 1.241-0.008 0.152 0.010 0.251 0.026 0.305 0.007 0.029 0.020 0.054 0.037 0.075l-0-0c0.006 0.007 0.029 0.030 0.1 0.049 0.078 0.021 0.214 0.035 0.412-0.001 0.403-0.074 0.938-0.339 1.438-0.86l0.744-0.776 0.979 0.361c0.175 0.064 0.354 0.122 0.536 0.174l1.271 0.362-0.011 1.417v0.032c0 0.768 0.203 1.383 0.443 1.757 0.117 0.183 0.226 0.282 0.298 0.329 0.065 0.043 0.097 0.043 0.106 0.043s0.041 0 0.106-0.043c0.072-0.047 0.18-0.146 0.298-0.329 0.24-0.374 0.442-0.989 0.442-1.756v-0.032l-0.011-1.418 1.271-0.362c0.248-0.070 0.491-0.154 0.726-0.247l1.023-0.408 0.768 0.835zM0.69 13.44c-0.428 0-0.753 0.358-0.68 0.749l3.21 17.28c0.058 0.307 0.344 0.531 0.68 0.531h13.32c0.336 0 0.623-0.224 0.68-0.531l3.21-17.28c0.073-0.391-0.252-0.749-0.68-0.749h-19.74zM10.56 21.144c-3.797 0-6.971-2.477-7.748-5.784h15.496c-0.777 3.308-3.951 5.784-7.748 5.784zM5.062 30.080l-1.86-10.013c1.827 1.843 4.447 2.996 7.358 2.996s5.531-1.154 7.358-2.996l-1.86 10.013h-10.996z"></path>
</symbol>
<symbol id="icon-heart" viewBox="0 0 28 32">
<path fill="#fea5bb" style="fill: var(--color2, #fea5bb)" d="M8.57 0.177c-2.136-0.445-4.244-0.092-6.001 1.594-2.124 2.038-3.066 5.206-2.31 8.537l0.015 0.077c0.166 0.705 0.397 1.384 0.657 1.959l0.021 0.048c0.637 1.443 1.606 2.879 2.945 4.232 2.831 2.861 5.469 4.452 7.446 5.299v10.077h5.964v-9.816c1.852-0.733 4.365-2.3 7.072-5.581 1.091-1.323 1.935-2.679 2.545-4.019 0.294-0.648 0.536-1.292 0.723-1.926l0.003-0.010c0.021-0.072 0.042-0.145 0.062-0.218l0.010-0.036c0.955-3.484 0.319-6.698-1.688-8.625-1.59-1.526-3.609-1.895-5.668-1.5-1.978 0.38-4.009 1.466-5.795 2.926-1.871-1.43-3.954-2.593-6.003-3.021zM3.946 3.13c1.203-1.155 2.6-1.424 4.214-1.087 1.7 0.355 3.58 1.388 5.386 2.797l1.074 0.838 1.041-0.876c1.662-1.398 3.468-2.348 5.087-2.659 1.564-0.301 2.877-0.006 3.912 0.986 1.344 1.29 1.985 3.757 1.19 6.726-0.073 0.271-0.157 0.547-0.255 0.826-0.16-0.125-0.243-0.289-0.243-0.444 0-0.246-0.040-0.481-0.115-0.701-0.375-1.101-1.609-1.853-2.975-1.853-0.174 0-0.346 0.012-0.515 0.036-1.417 0.198-2.575 1.203-2.575 2.518v1.921c0 0.297-0.326 0.646-0.877 0.646s-0.877-0.349-0.877-0.646v-1.92c0-1.472-1.451-2.555-3.091-2.555-1.639 0-3.090 1.084-3.090 2.554v1.921c0 0.297-0.326 0.646-0.877 0.646-0.552 0-0.878-0.349-0.878-0.646v-1.92c0-1.472-1.45-2.555-3.090-2.555s-3.091 1.084-3.091 2.554c0 0.292-0.314 0.635-0.848 0.646-1.088-3.139-0.269-6.063 1.493-7.755zM5.514 10.238c0-0.297 0.326-0.646 0.878-0.646s0.877 0.349 0.877 0.646v1.921c0 1.471 1.451 2.555 3.091 2.555 1.639 0 3.090-1.084 3.090-2.555v-1.92c0-0.298 0.326-0.647 0.877-0.647 0.552 0 0.878 0.349 0.878 0.646v1.921c0 1.471 1.45 2.555 3.091 2.555s3.090-1.084 3.090-2.555v-1.92c0-0.298 0.326-0.647 0.877-0.647s0.877 0.349 0.877 0.646c0 1.015 0.701 1.852 1.661 2.267-0.499 0.951-1.142 1.926-1.949 2.904-4.259 5.162-7.747 5.483-8.271 5.483-0.195 0-1.3-0.151-3.028-0.979-1.679-0.804-3.869-2.213-6.243-4.612-0.847-0.857-1.515-1.734-2.024-2.609 1.249-0.301 2.227-1.249 2.227-2.454zM13.305 30.093v-7.057h2.044v7.057h-2.044z"></path>
</symbol>
</defs>
</svg>
